<?xml version="1.0" encoding="UTF-8" standalone="no"?>
<!DOCTYPE svg PUBLIC "-//W3C//DTD SVG 1.1//EN"
 "http://www.w3.org/Graphics/SVG/1.1/DTD/svg11.dtd">
<!-- Generated by graphviz version 7.0.6 (0)
 -->
<!-- Title: include/emath.h Pages: 1 -->
<svg width="188pt" height="82pt"
 viewBox="0.00 0.00 187.50 82.00" xmlns="http://www.w3.org/2000/svg" xmlns:xlink="http://www.w3.org/1999/xlink">
<g id="graph0" class="graph" transform="scale(1 1) rotate(0) translate(4 78)">
<title>include/emath.h</title>
<!-- Node1 -->
<g id="node1" class="node">
<title>Node1</title>
<g id="a_node1"><a xlink:title="This is the main header file for the emath library.">
<polygon fill="#999999" stroke="#666666" points="131.5,-74 45.5,-74 45.5,-55 131.5,-55 131.5,-74"/>
<text text-anchor="middle" x="88.5" y="-62" font-family="Helvetica,sans-Serif" font-size="10.00">include/emath.h</text>
</a>
</g>
</g>
<!-- Node2 -->
<g id="node2" class="node">
<title>Node2</title>
<g id="a_node2"><a xlink:href="$src_2emath_8cpp.html" xlink:title="This is the main source file for the mathematical equation operations.">
<polygon fill="white" stroke="#666666" points="79,-19 0,-19 0,0 79,0 79,-19"/>
<text text-anchor="middle" x="39.5" y="-7" font-family="Helvetica,sans-Serif" font-size="10.00">src/emath.cpp</text>
</a>
</g>
</g>
<!-- Node1&#45;&gt;Node2 -->
<g id="edge1" class="edge">
<title>Node1&#45;&gt;Node2</title>
<path fill="none" stroke="#63b8ff" d="M72.78,-46.5C64.46,-37.5 54.59,-26.82 47.77,-19.44"/>
<polygon fill="#63b8ff" stroke="#63b8ff" points="70.02,-48.67 79.38,-53.64 75.16,-43.92 70.02,-48.67"/>
</g>
<!-- Node3 -->
<g id="node3" class="node">
<title>Node3</title>
<g id="a_node3"><a xlink:href="$test_2emath_8cpp.html" xlink:title="This is the main test file of the emath library. It contains all the tests needed to assure that the ...">
<polygon fill="white" stroke="#666666" points="179.5,-19 97.5,-19 97.5,0 179.5,0 179.5,-19"/>
<text text-anchor="middle" x="138.5" y="-7" font-family="Helvetica,sans-Serif" font-size="10.00">test/emath.cpp</text>
</a>
</g>
</g>
<!-- Node1&#45;&gt;Node3 -->
<g id="edge2" class="edge">
<title>Node1&#45;&gt;Node3</title>
<path fill="none" stroke="#63b8ff" d="M104.54,-46.5C113.03,-37.5 123.1,-26.82 130.06,-19.44"/>
<polygon fill="#63b8ff" stroke="#63b8ff" points="102.11,-43.97 97.8,-53.65 107.2,-48.78 102.11,-43.97"/>
</g>
</g>
</svg>
