<?xml version="1.0" encoding="UTF-8" standalone="no"?>
<!DOCTYPE svg PUBLIC "-//W3C//DTD SVG 1.1//EN"
 "http://www.w3.org/Graphics/SVG/1.1/DTD/svg11.dtd">
<!-- Generated by graphviz version 7.0.6 (0)
 -->
<!-- Title: include/emath.h Pages: 1 -->
<svg width="345pt" height="137pt"
 viewBox="0.00 0.00 345.00 137.00" xmlns="http://www.w3.org/2000/svg" xmlns:xlink="http://www.w3.org/1999/xlink">
<g id="graph0" class="graph" transform="scale(1 1) rotate(0) translate(4 133)">
<title>include/emath.h</title>
<!-- Node1 -->
<g id="node1" class="node">
<title>Node1</title>
<g id="a_node1"><a xlink:title="This is the main header file for the emath library.">
<polygon fill="#999999" stroke="#666666" points="240,-129 154,-129 154,-110 240,-110 240,-129"/>
<text text-anchor="middle" x="197" y="-117" font-family="Helvetica,sans-Serif" font-size="10.00">include/emath.h</text>
</a>
</g>
</g>
<!-- Node2 -->
<g id="node2" class="node">
<title>Node2</title>
<g id="a_node2"><a xlink:href="$eparser_8h.html" xlink:title="This is the main header file for the equation parser.">
<polygon fill="white" stroke="#666666" points="139.5,-74 48.5,-74 48.5,-55 139.5,-55 139.5,-74"/>
<text text-anchor="middle" x="94" y="-62" font-family="Helvetica,sans-Serif" font-size="10.00">include/eparser.h</text>
</a>
</g>
</g>
<!-- Node1&#45;&gt;Node2 -->
<g id="edge1" class="edge">
<title>Node1&#45;&gt;Node2</title>
<path fill="none" stroke="#63b8ff" d="M169.34,-104.27C150.83,-94.74 127.06,-82.51 111.21,-74.36"/>
<polygon fill="#63b8ff" stroke="#63b8ff" points="167.69,-107.35 178.18,-108.82 170.89,-101.13 167.69,-107.35"/>
</g>
<!-- Node5 -->
<g id="node5" class="node">
<title>Node5</title>
<g id="a_node5"><a xlink:href="$src_2emath_8cpp.html" xlink:title="This is the main source file for the mathematical equation operations.">
<polygon fill="white" stroke="#666666" points="236.5,-74 157.5,-74 157.5,-55 236.5,-55 236.5,-74"/>
<text text-anchor="middle" x="197" y="-62" font-family="Helvetica,sans-Serif" font-size="10.00">src/emath.cpp</text>
</a>
</g>
</g>
<!-- Node1&#45;&gt;Node5 -->
<g id="edge4" class="edge">
<title>Node1&#45;&gt;Node5</title>
<path fill="none" stroke="#63b8ff" d="M197,-98.35C197,-90.1 197,-80.97 197,-74.44"/>
<polygon fill="#63b8ff" stroke="#63b8ff" points="193.5,-98.23 197,-108.23 200.5,-98.23 193.5,-98.23"/>
</g>
<!-- Node6 -->
<g id="node6" class="node">
<title>Node6</title>
<g id="a_node6"><a xlink:href="$test_2emath_8cpp.html" xlink:title="This is the main test file of the emath library. It contains all the tests needed to assure that the ...">
<polygon fill="white" stroke="#666666" points="337,-74 255,-74 255,-55 337,-55 337,-74"/>
<text text-anchor="middle" x="296" y="-62" font-family="Helvetica,sans-Serif" font-size="10.00">test/emath.cpp</text>
</a>
</g>
</g>
<!-- Node1&#45;&gt;Node6 -->
<g id="edge5" class="edge">
<title>Node1&#45;&gt;Node6</title>
<path fill="none" stroke="#63b8ff" d="M223.84,-104.13C241.59,-94.63 264.3,-82.47 279.45,-74.36"/>
<polygon fill="#63b8ff" stroke="#63b8ff" points="222.29,-100.99 215.13,-108.79 225.6,-107.16 222.29,-100.99"/>
</g>
<!-- Node3 -->
<g id="node3" class="node">
<title>Node3</title>
<g id="a_node3"><a xlink:href="$src_2eparser_8cpp.html" xlink:title="This is the main implementation file for the equation parser.">
<polygon fill="white" stroke="#666666" points="84,-19 0,-19 0,0 84,0 84,-19"/>
<text text-anchor="middle" x="42" y="-7" font-family="Helvetica,sans-Serif" font-size="10.00">src/eparser.cpp</text>
</a>
</g>
</g>
<!-- Node2&#45;&gt;Node3 -->
<g id="edge2" class="edge">
<title>Node2&#45;&gt;Node3</title>
<path fill="none" stroke="#63b8ff" d="M77.59,-46.78C68.71,-37.72 58.09,-26.9 50.77,-19.44"/>
<polygon fill="#63b8ff" stroke="#63b8ff" points="74.85,-48.98 84.35,-53.67 79.85,-44.08 74.85,-48.98"/>
</g>
<!-- Node4 -->
<g id="node4" class="node">
<title>Node4</title>
<g id="a_node4"><a xlink:href="$test_2eparser_8cpp.html" xlink:title="This is the main test file for the equation parser.">
<polygon fill="white" stroke="#666666" points="189.5,-19 102.5,-19 102.5,0 189.5,0 189.5,-19"/>
<text text-anchor="middle" x="146" y="-7" font-family="Helvetica,sans-Serif" font-size="10.00">test/eparser.cpp</text>
</a>
</g>
</g>
<!-- Node2&#45;&gt;Node4 -->
<g id="edge3" class="edge">
<title>Node2&#45;&gt;Node4</title>
<path fill="none" stroke="#63b8ff" d="M110.41,-46.78C119.29,-37.72 129.91,-26.9 137.23,-19.44"/>
<polygon fill="#63b8ff" stroke="#63b8ff" points="108.15,-44.08 103.65,-53.67 113.15,-48.98 108.15,-44.08"/>
</g>
</g>
</svg>
