<?xml version="1.0" encoding="UTF-8" standalone="no"?>
<svg
   color-interpolation-filters="sRGB"
   data-v-70b83f88=""
   version="1.0"
   viewBox="0 0 197 113"
   id="svg124"
   sodipodi:docname="logo.svg"
   width="197"
   height="113"
   xmlns:inkscape="http://www.inkscape.org/namespaces/inkscape"
   xmlns:sodipodi="http://sodipodi.sourceforge.net/DTD/sodipodi-0.dtd"
   xmlns="http://www.w3.org/2000/svg"
   xmlns:svg="http://www.w3.org/2000/svg">
  <defs
     id="defs128" />
  <sodipodi:namedview
     id="namedview126"
     pagecolor="#ffffff"
     bordercolor="#000000"
     borderopacity="0.25"
     inkscape:showpageshadow="2"
     inkscape:pageopacity="0.0"
     inkscape:pagecheckerboard="0"
     inkscape:deskcolor="#d1d1d1"
     showgrid="false" />
  <rect
     class="background"
     width="100%"
     height="100%"
     fill="#ffffff"
     fill-opacity="0"
     data-v-70b83f88=""
     id="rect82"
     x="-72.058922"
     y="-68.167511" />
  <rect
     class="watermarklayer"
     width="100%"
     height="100%"
     fill="url(#watermark)"
     data-v-70b83f88=""
     id="rect84"
     x="-72.058922"
     y="-68.167511" />
  <g
     class="iconsvg-imagesvg UnoptimicedTransforms"
     transform="translate(67.941081,11.069489)"
     id="g106"
     style="fill:#333333">
    <rect
       class="image-rect"
       width="60"
       height="60.015999"
       fill="#333333"
       fill-opacity="0"
       stroke-width="2"
       id="rect86"
       x="0"
       y="0" />
    <svg
       class="image-svg-svg primary"
       width="60"
       height="60.015999"
       overflow="visible"
       filtersec="colorsb1074435046"
       version="1.1"
       id="svg104">
      <svg
         viewBox="0.039664507 -0.043109417 143.49562 143.53487"
         version="1.1"
         id="svg102"
         width="100%"
         height="100%">
        <path
           d="m 29,98.48 c -1,1 -1.86,2 -2.64,3 a 1.32,1.32 0 0 0 0.08,1.2 54.69,54.69 0 0 0 17.12,16.12 c 1.81,1.08 3.71,2 5.6,2.94 a 1.51,1.51 0 0 1 1,1.56 v 5.41 a 11,11 0 0 1 -1.2,-0.34 61,61 0 0 1 -25.31,-19.08 c -0.58,-0.73 -1.14,-1.47 -1.67,-2.23 -0.35,-0.5 -0.69,-0.57 -1.13,-0.13 -0.73,0.73 -1.46,1.47 -2.2,2.19 -0.43,0.42 -0.33,0.77 0,1.21 a 68.13,68.13 0 0 0 13.22,13.54 65.44,65.44 0 0 0 17.41,9.57 1.19,1.19 0 0 1 0.9,1.27 v 4.51 c 0,0.75 -0.27,0.92 -1,0.68 A 72.12,72.12 0 0 1 11.24,110.38 c -0.94,-1.47 -0.95,-1.45 0.28,-2.7 Q 20.8,98.32 30,89 c 2.78,-2.79 5.61,-5.52 8.41,-8.27 0.25,-0.24 0.53,-0.45 0.91,-0.77 0.18,0.42 0.32,0.69 0.41,1 a 32.44,32.44 0 0 0 9.41,15.22 2.74,2.74 0 0 1 1,2.32 c -0.07,2 0,3.91 0,6.12 A 11.14,11.14 0 0 1 48.9,103.94 39.81,39.81 0 0 1 37.76,91.77 c -0.65,-1.09 -0.68,-1.09 -1.58,-0.18 -0.56,0.56 -1.08,1.16 -1.68,1.67 -0.6,0.51 -0.62,1.06 -0.18,1.75 a 44.49,44.49 0 0 0 14.68,14.47 2,2 0 0 1 1.19,2 c -0.09,1.42 0,2.86 0,4.29 0,1.22 -0.08,1.27 -1.21,0.7 a 47.81,47.81 0 0 1 -14.52,-11.2 c -1.69,-1.93 -3.17,-4 -4.74,-6.08 C 29.59,99.06 29.44,98.92 29,98.48 Z"
           fill="#0c3b70"
           id="path88" />
        <path
           d="m 43.14,54.46 c -0.86,1.86 -1.61,3.35 -2.24,4.89 a 30.56,30.56 0 0 0 -2.33,13.72 2.54,2.54 0 0 1 -0.78,2.2 c -1.45,1.41 -2.82,2.92 -4.4,4.32 a 23.51,23.51 0 0 1 -1,-9.41 c 0.22,-3.12 0.79,-6.21 1.24,-9.48 h -4.16 c -0.18,0 -0.42,0.43 -0.49,0.7 a 37.74,37.74 0 0 0 -1.12,13.08 c 0.23,2.8 0.85,5.57 1.27,8.36 A 1.51,1.51 0 0 1 29,84 c -1.4,1.51 -2.86,3 -4.44,4.58 -0.26,-0.6 -0.45,-1 -0.58,-1.36 A 50.92,50.92 0 0 1 22.47,62.11 c 0.26,-1.42 0.25,-1.42 -1.23,-1.42 h -2.25 c -0.75,0 -1,0.25 -1.13,1 A 58.43,58.43 0 0 0 17,74 54.34,54.34 0 0 0 20.43,91 1.61,1.61 0 0 1 20,93.1 c -1.26,1.14 -2.43,2.37 -3.84,3.76 -0.65,-1.61 -1.26,-3 -1.76,-4.35 A 61.27,61.27 0 0 1 11.29,63.88 c 0.1,-0.78 0.23,-1.56 0.36,-2.33 0.13,-0.77 -0.16,-0.91 -0.81,-0.9 h -2.9 c -0.69,0 -0.91,0.31 -1,1 a 67.33,67.33 0 0 0 -0.53,15.73 63.63,63.63 0 0 0 5.88,22 1.3,1.3 0 0 1 -0.29,1.71 c -1,1 -2.05,2 -3.05,3 -0.63,0.66 -1,0.47 -1.32,-0.27 a 70.09,70.09 0 0 1 -6,-17 72.17,72.17 0 0 1 0.09,-30.55 c 0.36,-1.71 0.37,-1.71 2.06,-1.71 l 33.05,-0.08 z"
           fill="#1274c6"
           id="path90" />
        <path
           d="m 114.37,45.1 c 1,-1.16 2,-2.11 2.77,-3.14 a 1.21,1.21 0 0 0 -0.1,-1.1 c -1.29,-1.75 -2.54,-3.55 -4,-5.18 a 54.1,54.1 0 0 0 -18.8,-13.93 1.4,1.4 0 0 1 -1,-1.47 v -5.6 A 61.53,61.53 0 0 1 121.91,37 l 3.35,-3.46 c -1.89,-2.21 -3.79,-4.62 -5.88,-6.86 A 64.5,64.5 0 0 0 96.59,11 C 95.77,10.66 94.9,10.42 94.11,10 A 1.49,1.49 0 0 1 93.34,9 c -0.08,-1.6 0,-3.22 0,-4.83 0,-0.71 0.33,-0.83 1,-0.62 A 71.46,71.46 0 0 1 132,32.76 c 1.24,1.87 1.23,1.91 -0.38,3.52 L 105,62.9 c -0.22,0.22 -0.47,0.41 -0.82,0.7 -0.54,-1.48 -1,-2.85 -1.53,-4.21 A 31.65,31.65 0 0 0 94.17,47.17 2.38,2.38 0 0 1 93.31,45.12 c 0.06,-2 0,-4 0,-6.32 a 39.48,39.48 0 0 1 13.07,14 c 1.11,-1.11 2.14,-2.08 3.07,-3.14 0.15,-0.17 -0.08,-0.8 -0.28,-1.13 A 42.32,42.32 0 0 0 99,37.15 c -1.58,-1.22 -3.29,-2.27 -4.93,-3.42 -0.27,-0.19 -0.65,-0.5 -0.66,-0.76 v -6.55 a 51.49,51.49 0 0 1 20.96,18.68 z"
           fill="#0c3b70"
           id="path92" />
        <path
           d="m 100.37,89 c 0.25,-0.55 0.35,-0.85 0.5,-1.12 a 31.56,31.56 0 0 0 4,-17 3.5,3.5 0 0 1 1.21,-3 c 1.33,-1.24 2.54,-2.61 4,-4.11 a 5.57,5.57 0 0 1 0.44,1.06 39.88,39.88 0 0 1 -0.61,16.81 c -0.3,1.2 -0.28,1.24 0.91,1.25 a 19.79,19.79 0 0 0 2.67,0 1.43,1.43 0 0 0 1,-0.8 42.13,42.13 0 0 0 0.84,-16.28 c -0.22,-1.73 -0.68,-3.43 -1,-5.15 a 1.49,1.49 0 0 1 0.15,-1.08 c 1.4,-1.47 2.85,-2.89 4.51,-4.55 a 51.54,51.54 0 0 1 1.81,27.77 h 4.32 c 0.19,0 0.45,-0.53 0.5,-0.84 a 54.84,54.84 0 0 0 -1,-24.44 c -0.51,-1.78 -1.14,-3.54 -1.62,-5.33 a 1.77,1.77 0 0 1 0.29,-1.4 c 1,-1.18 2.2,-2.25 3.3,-3.38 0.58,-0.59 0.89,-0.45 1.21,0.3 a 60.37,60.37 0 0 1 4.52,30.64 c -0.13,1.18 -0.27,2.35 -0.46,3.51 -0.12,0.77 0.15,1.06 0.91,1 0.76,-0.06 1.79,0 2.68,0 0.71,0 1,-0.26 1.11,-1 a 64.56,64.56 0 0 0 0.72,-12.73 66,66 0 0 0 -6,-25.18 1.48,1.48 0 0 1 0.15,-1.3 c 1,-1.18 2.19,-2.26 3.29,-3.38 0.55,-0.56 0.84,-0.41 1.17,0.26 a 70.26,70.26 0 0 1 7.26,39.22 c -0.31,3.08 -1,6.13 -1.49,9.2 -0.12,0.76 -0.49,1 -1.23,1 h -35.09 z"
           fill="#1274c6"
           id="path94" />
        <path
           d="m 52.93,37 c -1.14,-1.07 -2.09,-1.93 -3,-2.82 -0.55,-0.53 -1,-0.17 -1.43,0.11 A 43.15,43.15 0 0 0 37,44.76 c -1.15,1.51 -2.11,3.15 -3.23,4.68 a 1.8,1.8 0 0 1 -1.17,0.7 c -1.68,0.08 -3.37,0 -5,0 -0.82,0 -1,-0.28 -0.62,-1 a 50.85,50.85 0 0 1 17,-19.2 l 1,-0.72 c -1,-1 -2,-2 -3,-2.91 -0.2,-0.17 -0.83,-0.06 -1.12,0.14 a 55.27,55.27 0 0 0 -19.18,22.9 c -0.14,0.3 -0.43,0.74 -0.66,0.75 h -6.35 c 0.81,-1.84 1.46,-3.49 2.24,-5.07 a 60.83,60.83 0 0 1 19.4,-22.9 c 0.74,-0.53 0.75,-0.89 0.1,-1.46 a 15.13,15.13 0 0 1 -1.73,-1.76 c -0.57,-0.68 -1,-0.61 -1.71,-0.11 A 68,68 0 0 0 21.5,29.57 64.21,64.21 0 0 0 10.24,48.94 1.57,1.57 0 0 1 8.46,50.19 c -1.39,-0.07 -2.79,0 -4.19,0 -0.72,0 -0.85,-0.29 -0.64,-0.94 a 70.79,70.79 0 0 1 18.7,-29.5 79.81,79.81 0 0 1 11.3,-8.85 1.27,1.27 0 0 1 1.91,0.26 Q 47.26,22.87 59,34.56 c 1.51,1.51 3,3.07 4.58,4.73 a 6.53,6.53 0 0 1 -0.79,0.4 33.21,33.21 0 0 0 -15.68,9.67 2.79,2.79 0 0 1 -1.74,0.77 A 49.3,49.3 0 0 1 39.09,50 38.08,38.08 0 0 1 52.93,37 Z"
           fill="#0c3b70"
           id="path96" />
        <path
           d="m 96.59,127.56 c -2.21,0.79 -4.39,1.67 -6.63,2.37 a 60.53,60.53 0 0 1 -27.88,2 c -1.4,-0.22 -1.4,-0.21 -1.4,1.16 0,0.71 0.06,1.43 0,2.14 -0.09,0.93 0.32,1.26 1.18,1.38 a 68.5,68.5 0 0 0 15.41,0.49 65.1,65.1 0 0 0 22.16,-5.87 1.23,1.23 0 0 1 1.62,0.27 q 1.48,1.54 3,3 c 0.69,0.65 0.58,1.05 -0.25,1.39 -3.65,1.46 -7.21,3.19 -10.94,4.35 a 70.66,70.66 0 0 1 -37,1.46 c -1,-0.23 -1.38,-0.63 -1.38,-1.71 v -31.65 c 0,-2.39 0,-4.79 0.05,-7.18 a 3.85,3.85 0 0 1 0.14,-0.72 4.81,4.81 0 0 1 0.82,0.29 31.81,31.81 0 0 0 17.51,4.18 2.86,2.86 0 0 1 2.37,0.94 c 1.35,1.42 2.8,2.75 4.14,4.29 -6.29,1.62 -12.49,1.12 -18.84,-0.49 v 4.32 c 0,0.23 0.53,0.55 0.86,0.61 a 58.21,58.21 0 0 0 6.65,1.06 41.63,41.63 0 0 0 14.36,-1.22 1.66,1.66 0 0 1 1.89,0.52 c 1.28,1.32 2.64,2.57 4.19,4.06 a 51.7,51.7 0 0 1 -28,1.81 v 4.26 c 0,0.21 0.55,0.51 0.88,0.56 a 55.28,55.28 0 0 0 25.28,-1.21 c 1.47,-0.43 2.93,-0.91 4.37,-1.43 a 1.25,1.25 0 0 1 1.53,0.31 c 1.28,1.29 2.6,2.53 3.9,3.78 z M 55.24,24.43 a 5.52,5.52 0 0 1 0.72,-0.38 51.12,51.12 0 0 1 23.84,-1.87 c 0.7,0.11 1.42,0.2 2.11,0.37 0.69,0.17 1,-0.13 1,-0.82 V 19.9 c 0,-1.93 0,-1.88 -1.86,-2.2 a 55,55 0 0 0 -23.91,1.2 c -1.68,0.46 -3.32,1.12 -5,1.59 a 1.6,1.6 0 0 1 -1.3,-0.26 C 49.7,19.23 48.65,18.07 47.55,17 46.9,16.38 46.92,16 47.82,15.66 A 60.55,60.55 0 0 1 77.33,11 c 1.77,0.16 3.53,0.42 5.47,0.65 V 7.44 c 0,-0.2 -0.49,-0.48 -0.79,-0.53 a 66,66 0 0 0 -37.9,5.28 1.5,1.5 0 0 1 -1.33,-0.08 C 41.42,10.9 40.15,9.6 38.68,8.11 39.52,7.63 40.17,7.22 40.85,6.89 A 72.06,72.06 0 0 1 83,0.85 52,52 0 0 1 88.2,1.94 1.39,1.39 0 0 1 88.92,3 C 89,4.63 89,6.28 89,7.93 v 35.15 a 12.23,12.23 0 0 1 -1.14,-0.5 31.89,31.89 0 0 0 -16.89,-4 3.64,3.64 0 0 1 -3.08,-1.19 c -1.26,-1.31 -2.63,-2.52 -4,-3.77 l 0.1,-0.42 c 1.16,-0.21 2.3,-0.51 3.46,-0.63 a 39.77,39.77 0 0 1 14,1 c 1.38,0.36 1.41,0.32 1.42,-1.06 v -1.4 c 0,-2 0,-2.06 -2,-2.46 a 45,45 0 0 0 -20.1,0.47 1.62,1.62 0 0 1 -1.27,-0.18 c -1.41,-1.31 -2.74,-2.71 -4.1,-4.08 -0.1,-0.11 -0.1,-0.24 -0.16,-0.43 z"
           fill="#1274c6"
           id="path98" />
        <path
           d="m 128.79,93.33 a 62,62 0 0 1 -22.52,28.74 c 1.09,1.05 2,2 3,2.87 0.18,0.15 0.76,0 1,-0.17 a 65.54,65.54 0 0 0 23,-30.53 1.24,1.24 0 0 1 1.34,-0.94 h 4.4 c 0.85,0 0.94,0.35 0.7,1.07 a 70.51,70.51 0 0 1 -15.06,25.71 73.32,73.32 0 0 1 -14.56,12.26 c -1.33,0.85 -1.33,0.86 -2.47,-0.27 L 83.88,108.29 c -1.33,-1.32 -2.62,-2.7 -4,-4.17 1.27,-0.44 2.38,-0.81 3.48,-1.21 a 31.66,31.66 0 0 0 13,-8.78 2.31,2.31 0 0 1 1.86,-0.84 h 6.45 a 13.39,13.39 0 0 1 -0.75,1.29 39.81,39.81 0 0 1 -12.29,11.22 c -0.81,0.47 -0.87,0.81 -0.17,1.39 0.27,0.22 0.51,0.49 0.77,0.74 2.26,2.2 1.39,2.15 4.11,0.35 a 43.05,43.05 0 0 0 13.29,-14.06 1.66,1.66 0 0 1 1.63,-0.93 h 5.82 a 51.19,51.19 0 0 1 -18.6,21 c 1.11,1.06 2,2 3.07,2.88 0.18,0.16 0.76,0 1,-0.12 A 53.37,53.37 0 0 0 118,101.17 c 1.42,-2.26 2.55,-4.71 3.84,-7 0.17,-0.31 0.51,-0.74 0.79,-0.75 1.94,-0.12 3.9,-0.09 6.16,-0.09 z"
           fill="#0c3b70"
           id="path100" />
      </svg>
    </svg>
  </g>
  <g
     transform="translate(9.7360812,78.085486)"
     id="g120"
     style="fill:#333333">
    <g
       class="tp-name iconsvg-namesvg"
       fill-rule=""
       data-gra="path-name"
       id="g118">
      <g
         id="g116">
        <path
           transform="translate(-1.42,18.87)"
           d="M 17.52,-17.64 H 1.42 V 0 h 16.1 V -1.98 H 3.41 V -7.82 H 14.75 V -9.83 H 3.41 v -5.83 H 17.52 Z M 22.25,0 h 9.48 v 5.64 h 2.01 V -14.21 H 22.25 c -1.64,0 -2.99,1.33 -2.99,2.96 v 8.29 c 0,1.63 1.35,2.96 2.99,2.96 z m 0,-12.2 h 8.53 c 0.51,0 0.95,0.43 0.95,0.95 v 8.29 c 0,0.51 -0.44,0.95 -0.95,0.95 h -8.53 c -0.52,0 -0.96,-0.44 -0.96,-0.95 v -8.29 c 0,-0.52 0.44,-0.95 0.96,-0.95 z m 24.97,10.19 h -8.53 c -0.52,0 -0.96,-0.44 -0.96,-0.95 v -11.25 h -2 v 11.25 c 0,1.62 1.34,2.96 2.96,2.96 h 8.53 c 1.64,0 2.99,-1.33 2.99,-2.96 V -14.21 H 48.2 v 11.25 c 0,0.51 -0.46,0.95 -0.98,0.95 z m 17.96,-9.24 v 3.14 H 52.73 v 5.15 c 0,1.62 1.35,2.96 2.97,2.96 h 11.51 v -11.25 c 0,-1.63 -1.35,-2.96 -2.99,-2.96 H 52.73 v 2.01 h 11.49 c 0.52,0 0.96,0.43 0.96,0.95 z M 54.74,-2.96 V -6.1 h 10.44 v 4.09 H 55.7 c -0.52,0 -0.96,-0.44 -0.96,-0.95 z M 72.73,0 h 5.19 v -2.01 h -5.19 c -0.52,0 -0.96,-0.44 -0.96,-0.95 v -9.24 h 6.15 v -2.01 h -6.15 v -4.66 h -2.01 v 15.91 c 0,1.63 1.32,2.96 2.97,2.96 z m 7.17,0 h 2.01 V -14.21 H 79.9 Z m 0,-18.87 v 2.01 h 2.01 v -2.01 z m 5.08,7.62 v 8.29 c 0,1.62 1.34,2.96 2.96,2.96 h 8.53 c 1.64,0 2.99,-1.33 2.99,-2.96 v -8.29 c 0,-1.63 -1.35,-2.96 -2.99,-2.96 h -8.53 c -1.62,0 -2.96,1.34 -2.96,2.96 z m 12.44,0 v 8.29 c 0,0.51 -0.43,0.95 -0.95,0.95 h -8.53 c -0.52,0 -0.95,-0.44 -0.95,-0.95 v -8.29 c 0,-0.52 0.43,-0.95 0.95,-0.95 h 8.53 c 0.52,0 0.95,0.43 0.95,0.95 z m 7.21,-0.95 h 8.53 c 0.51,0 0.95,0.43 0.95,0.95 V 0 h 2.01 v -11.25 c 0,-1.62 -1.34,-2.96 -2.96,-2.96 H 101.64 V 0 h 2.01 v -11.25 c 0,-0.52 0.46,-0.95 0.98,-0.95 z"
           id="path108" />
        <g
           transform="translate(117.7)"
           fill="#333333"
           data-gra="path-name-1"
           id="g114">
          <g
             id="g112">
            <path
               transform="translate(-2.18,18.87)"
               d="M 5.1,-11.84 V 0 H 2.18 v -15.24 h 3.53 l 5.07,9.73 5.27,-9.73 h 3.5 V 0 h -2.91 v -11.84 l -4.61,8.53 H 9.58 Z m 22.32,10.39 h 4.07 q 0.46,0 0.66,-0.18 0.19,-0.18 0.19,-0.62 v -7.38 q 0,-0.44 -0.19,-0.62 -0.2,-0.19 -0.66,-0.19 h -4.07 q -0.49,0 -0.63,0.15 -0.13,0.15 -0.13,0.61 v 7.47 q 0,0.49 0.13,0.63 0.14,0.13 0.63,0.13 z m 4.92,-9.67 v -0.76 h 3.17 V 0 H 32.34 V -0.76 Q 32.05,0 30.97,0 H 25.43 Q 23.5,0 23.5,-1.94 v -8.01 q 0,-1.93 1.93,-1.93 h 5.54 q 1.08,0 1.37,0.76 z m 13.7,-0.76 v 1.44 h -2.77 v 8.14 q 0,0.49 0.14,0.62 0.13,0.14 0.62,0.14 h 1.99 V 0 h -3.97 q -1.94,0 -1.94,-1.94 v -8.5 H 38.2 v -1.44 h 1.91 v -2.36 h 3.16 v 2.36 z m 7.35,0 h 5.56 q 1.94,0 1.94,1.93 V 0 H 57.7 v -9.68 q 0,-0.46 -0.14,-0.61 -0.15,-0.15 -0.61,-0.15 h -4.07 q -0.86,0 -0.86,0.81 v 0.74 H 52 V 0 H 48.83 V -16.39 H 52 v 5.34 q 0.29,-0.83 1.39,-0.83 z"
               id="path110" />
          </g>
        </g>
      </g>
    </g>
  </g>
</svg>
