<?xml version="1.0" encoding="UTF-8" standalone="no"?>
<!DOCTYPE svg PUBLIC "-//W3C//DTD SVG 1.1//EN"
 "http://www.w3.org/Graphics/SVG/1.1/DTD/svg11.dtd">
<!-- Generated by graphviz version 7.0.6 (0)
 -->
<!-- Title: EParserTest Pages: 1 -->
<svg width="268pt" height="93pt"
 viewBox="0.00 0.00 267.50 93.00" xmlns="http://www.w3.org/2000/svg" xmlns:xlink="http://www.w3.org/1999/xlink">
<g id="graph0" class="graph" transform="scale(1 1) rotate(0) translate(4 89)">
<title>EParserTest</title>
<!-- Node1 -->
<g id="node1" class="node">
<title>Node1</title>
<g id="a_node1"><a xlink:title="Class that provides a test fixture for the test cases.">
<polygon fill="#999999" stroke="#666666" points="162,-19 91,-19 91,0 162,0 162,-19"/>
<text text-anchor="middle" x="126.5" y="-7" font-family="Helvetica,sans-Serif" font-size="10.00">EParserTest</text>
</a>
</g>
</g>
<!-- Node2 -->
<g id="node2" class="node">
<title>Node2</title>
<g id="a_node2"><a xlink:title=" ">
<polygon fill="white" stroke="#bfbfbf" points="71,-85 0,-85 0,-66 71,-66 71,-85"/>
<text text-anchor="middle" x="35.5" y="-73" font-family="Helvetica,sans-Serif" font-size="10.00">testing::Test</text>
</a>
</g>
</g>
<!-- Node2&#45;&gt;Node1 -->
<g id="edge1" class="edge">
<title>Node2&#45;&gt;Node1</title>
<path fill="none" stroke="#63b8ff" d="M57.2,-59.24C74.92,-46.78 99.33,-29.61 113.95,-19.32"/>
<polygon fill="#63b8ff" stroke="#63b8ff" points="55.56,-56.11 49.39,-64.73 59.58,-61.84 55.56,-56.11"/>
</g>
<!-- Node3 -->
<g id="node3" class="node">
<title>Node3</title>
<g id="a_node3"><a xlink:href="classemthp_1_1Lexer.html" target="_top" xlink:title="Class that works as a token supplier for the Parser class.">
<polygon fill="white" stroke="#666666" points="163.5,-85 89.5,-85 89.5,-66 163.5,-66 163.5,-85"/>
<text text-anchor="middle" x="126.5" y="-73" font-family="Helvetica,sans-Serif" font-size="10.00">emthp::Lexer</text>
</a>
</g>
</g>
<!-- Node3&#45;&gt;Node1 -->
<g id="edge2" class="edge">
<title>Node3&#45;&gt;Node1</title>
<path fill="none" stroke="#9a32cd" stroke-dasharray="5,2" d="M126.5,-54.18C126.5,-42.44 126.5,-28.27 126.5,-19.32"/>
<polygon fill="#9a32cd" stroke="#9a32cd" points="123,-54.09 126.5,-64.09 130,-54.09 123,-54.09"/>
<text text-anchor="middle" x="139" y="-40" font-family="Helvetica,sans-Serif" font-size="10.00"> lexer</text>
</g>
<!-- Node4 -->
<g id="node4" class="node">
<title>Node4</title>
<g id="a_node4"><a xlink:href="classemthp_1_1Parser.html" target="_top" xlink:title="Class that wraps a std::string and parses it as a Monomial or as a Polynomial.">
<polygon fill="white" stroke="#666666" points="259.5,-85 181.5,-85 181.5,-66 259.5,-66 259.5,-85"/>
<text text-anchor="middle" x="220.5" y="-73" font-family="Helvetica,sans-Serif" font-size="10.00">emthp::Parser</text>
</a>
</g>
</g>
<!-- Node4&#45;&gt;Node1 -->
<g id="edge3" class="edge">
<title>Node4&#45;&gt;Node1</title>
<path fill="none" stroke="#9a32cd" stroke-dasharray="5,2" d="M198.08,-59.24C179.78,-46.78 154.56,-29.61 139.46,-19.32"/>
<polygon fill="#9a32cd" stroke="#9a32cd" points="195.94,-62.01 206.18,-64.75 199.88,-56.23 195.94,-62.01"/>
<text text-anchor="middle" x="194" y="-40" font-family="Helvetica,sans-Serif" font-size="10.00"> parser</text>
</g>
</g>
</svg>
