<?xml version="1.0" encoding="UTF-8" standalone="no"?>
<!DOCTYPE svg PUBLIC "-//W3C//DTD SVG 1.1//EN"
 "http://www.w3.org/Graphics/SVG/1.1/DTD/svg11.dtd">
<!-- Generated by graphviz version 7.0.6 (0)
 -->
<!-- Title: include/eparser.h Pages: 1 -->
<svg width="198pt" height="82pt"
 viewBox="0.00 0.00 197.50 82.00" xmlns="http://www.w3.org/2000/svg" xmlns:xlink="http://www.w3.org/1999/xlink">
<g id="graph0" class="graph" transform="scale(1 1) rotate(0) translate(4 78)">
<title>include/eparser.h</title>
<!-- Node1 -->
<g id="node1" class="node">
<title>Node1</title>
<g id="a_node1"><a xlink:title="This is the main header file for the equation parser.">
<polygon fill="#999999" stroke="#666666" points="139.5,-74 48.5,-74 48.5,-55 139.5,-55 139.5,-74"/>
<text text-anchor="middle" x="94" y="-62" font-family="Helvetica,sans-Serif" font-size="10.00">include/eparser.h</text>
</a>
</g>
</g>
<!-- Node2 -->
<g id="node2" class="node">
<title>Node2</title>
<g id="a_node2"><a xlink:href="src_2eparser_8cpp.html" target="_top" xlink:title="This is the main implementation file for the equation parser.">
<polygon fill="white" stroke="#666666" points="84,-19 0,-19 0,0 84,0 84,-19"/>
<text text-anchor="middle" x="42" y="-7" font-family="Helvetica,sans-Serif" font-size="10.00">src/eparser.cpp</text>
</a>
</g>
</g>
<!-- Node1&#45;&gt;Node2 -->
<g id="edge1" class="edge">
<title>Node1&#45;&gt;Node2</title>
<path fill="none" stroke="#63b8ff" d="M77.59,-46.78C68.71,-37.72 58.09,-26.9 50.77,-19.44"/>
<polygon fill="#63b8ff" stroke="#63b8ff" points="74.85,-48.98 84.35,-53.67 79.85,-44.08 74.85,-48.98"/>
</g>
<!-- Node3 -->
<g id="node3" class="node">
<title>Node3</title>
<g id="a_node3"><a xlink:href="test_2eparser_8cpp.html" target="_top" xlink:title="This is the main test file for the equation parser.">
<polygon fill="white" stroke="#666666" points="189.5,-19 102.5,-19 102.5,0 189.5,0 189.5,-19"/>
<text text-anchor="middle" x="146" y="-7" font-family="Helvetica,sans-Serif" font-size="10.00">test/eparser.cpp</text>
</a>
</g>
</g>
<!-- Node1&#45;&gt;Node3 -->
<g id="edge2" class="edge">
<title>Node1&#45;&gt;Node3</title>
<path fill="none" stroke="#63b8ff" d="M110.41,-46.78C119.29,-37.72 129.91,-26.9 137.23,-19.44"/>
<polygon fill="#63b8ff" stroke="#63b8ff" points="108.15,-44.08 103.65,-53.67 113.15,-48.98 108.15,-44.08"/>
</g>
</g>
</svg>
