<?xml version="1.0" encoding="UTF-8" standalone="no"?>
<!DOCTYPE svg PUBLIC "-//W3C//DTD SVG 1.1//EN"
 "http://www.w3.org/Graphics/SVG/1.1/DTD/svg11.dtd">
<!-- Generated by graphviz version 7.0.6 (0)
 -->
<!-- Title: include/eparser.h Pages: 1 -->
<svg width="355pt" height="137pt"
 viewBox="0.00 0.00 354.50 137.00" xmlns="http://www.w3.org/2000/svg" xmlns:xlink="http://www.w3.org/1999/xlink">
<g id="graph0" class="graph" transform="scale(1 1) rotate(0) translate(4 133)">
<title>include/eparser.h</title>
<!-- Node1 -->
<g id="node1" class="node">
<title>Node1</title>
<g id="a_node1"><a xlink:title="This is the main header file for the equation parser.">
<polygon fill="#999999" stroke="#666666" points="123,-129 32,-129 32,-110 123,-110 123,-129"/>
<text text-anchor="middle" x="77.5" y="-117" font-family="Helvetica,sans-Serif" font-size="10.00">include/eparser.h</text>
</a>
</g>
</g>
<!-- Node2 -->
<g id="node2" class="node">
<title>Node2</title>
<g id="a_node2"><a xlink:title=" ">
<polygon fill="#e0e0e0" stroke="#999999" points="41,-19 0,-19 0,0 41,0 41,-19"/>
<text text-anchor="middle" x="20.5" y="-7" font-family="Helvetica,sans-Serif" font-size="10.00">string</text>
</a>
</g>
</g>
<!-- Node1&#45;&gt;Node2 -->
<g id="edge1" class="edge">
<title>Node1&#45;&gt;Node2</title>
<path fill="none" stroke="#63b8ff" d="M72.84,-109.66C63.65,-92.26 43.03,-53.19 30.59,-29.62"/>
<polygon fill="#63b8ff" stroke="#63b8ff" points="33.7,-28.01 25.94,-20.8 27.51,-31.28 33.7,-28.01"/>
</g>
<!-- Node3 -->
<g id="node3" class="node">
<title>Node3</title>
<g id="a_node3"><a xlink:href="emath_8h.html" target="_top" xlink:title="This is the main header file for the emath library.">
<polygon fill="white" stroke="#666666" points="160.5,-74 108.5,-74 108.5,-55 160.5,-55 160.5,-74"/>
<text text-anchor="middle" x="134.5" y="-62" font-family="Helvetica,sans-Serif" font-size="10.00">emath.h</text>
</a>
</g>
</g>
<!-- Node1&#45;&gt;Node3 -->
<g id="edge2" class="edge">
<title>Node1&#45;&gt;Node3</title>
<path fill="none" stroke="#63b8ff" d="M87.17,-109.51C95.24,-102 106.97,-91.1 116.72,-82.03"/>
<polygon fill="#63b8ff" stroke="#63b8ff" points="118.93,-84.76 123.87,-75.39 114.16,-79.63 118.93,-84.76"/>
</g>
<!-- Node3&#45;&gt;Node2 -->
<g id="edge7" class="edge">
<title>Node3&#45;&gt;Node2</title>
<path fill="none" stroke="#63b8ff" d="M115.16,-54.51C97.28,-46.2 70.46,-33.73 49.93,-24.18"/>
<polygon fill="#63b8ff" stroke="#63b8ff" points="51.47,-21.04 40.93,-20 48.52,-27.39 51.47,-21.04"/>
</g>
<!-- Node4 -->
<g id="node4" class="node">
<title>Node4</title>
<g id="a_node4"><a xlink:title=" ">
<polygon fill="#e0e0e0" stroke="#999999" points="94,-19 59,-19 59,0 94,0 94,-19"/>
<text text-anchor="middle" x="76.5" y="-7" font-family="Helvetica,sans-Serif" font-size="10.00">map</text>
</a>
</g>
</g>
<!-- Node3&#45;&gt;Node4 -->
<g id="edge3" class="edge">
<title>Node3&#45;&gt;Node4</title>
<path fill="none" stroke="#63b8ff" d="M124.66,-54.51C116.45,-47 104.52,-36.1 94.59,-27.03"/>
<polygon fill="#63b8ff" stroke="#63b8ff" points="97.05,-24.54 87.31,-20.38 92.33,-29.71 97.05,-24.54"/>
</g>
<!-- Node5 -->
<g id="node5" class="node">
<title>Node5</title>
<g id="a_node5"><a xlink:title=" ">
<polygon fill="#e0e0e0" stroke="#999999" points="156.5,-19 112.5,-19 112.5,0 156.5,0 156.5,-19"/>
<text text-anchor="middle" x="134.5" y="-7" font-family="Helvetica,sans-Serif" font-size="10.00">cmath</text>
</a>
</g>
</g>
<!-- Node3&#45;&gt;Node5 -->
<g id="edge4" class="edge">
<title>Node3&#45;&gt;Node5</title>
<path fill="none" stroke="#63b8ff" d="M134.5,-54.75C134.5,-48.27 134.5,-39.16 134.5,-30.9"/>
<polygon fill="#63b8ff" stroke="#63b8ff" points="138,-30.96 134.5,-20.96 131,-30.96 138,-30.96"/>
</g>
<!-- Node6 -->
<g id="node6" class="node">
<title>Node6</title>
<g id="a_node6"><a xlink:title=" ">
<polygon fill="#e0e0e0" stroke="#999999" points="228,-19 175,-19 175,0 228,0 228,-19"/>
<text text-anchor="middle" x="201.5" y="-7" font-family="Helvetica,sans-Serif" font-size="10.00">complex</text>
</a>
</g>
</g>
<!-- Node3&#45;&gt;Node6 -->
<g id="edge5" class="edge">
<title>Node3&#45;&gt;Node6</title>
<path fill="none" stroke="#63b8ff" d="M145.87,-54.51C155.55,-46.85 169.7,-35.66 181.31,-26.47"/>
<polygon fill="#63b8ff" stroke="#63b8ff" points="183.44,-29.25 189.12,-20.3 179.1,-23.76 183.44,-29.25"/>
</g>
<!-- Node7 -->
<g id="node7" class="node">
<title>Node7</title>
<g id="a_node7"><a xlink:title=" ">
<polygon fill="#e0e0e0" stroke="#999999" points="290.5,-19 246.5,-19 246.5,0 290.5,0 290.5,-19"/>
<text text-anchor="middle" x="268.5" y="-7" font-family="Helvetica,sans-Serif" font-size="10.00">vector</text>
</a>
</g>
</g>
<!-- Node3&#45;&gt;Node7 -->
<g id="edge6" class="edge">
<title>Node3&#45;&gt;Node7</title>
<path fill="none" stroke="#63b8ff" d="M157.23,-54.51C178.73,-46.01 211.23,-33.15 235.57,-23.53"/>
<polygon fill="#63b8ff" stroke="#63b8ff" points="236.69,-26.85 244.7,-19.91 234.11,-20.34 236.69,-26.85"/>
</g>
<!-- Node8 -->
<g id="node8" class="node">
<title>Node8</title>
<g id="a_node8"><a xlink:title=" ">
<polygon fill="#e0e0e0" stroke="#999999" points="346.5,-19 308.5,-19 308.5,0 346.5,0 346.5,-19"/>
<text text-anchor="middle" x="327.5" y="-7" font-family="Helvetica,sans-Serif" font-size="10.00">set.h</text>
</a>
</g>
</g>
<!-- Node3&#45;&gt;Node8 -->
<g id="edge8" class="edge">
<title>Node3&#45;&gt;Node8</title>
<path fill="none" stroke="#63b8ff" d="M160.86,-56.66C191.45,-48.67 243.67,-34.85 297.47,-19.52"/>
<polygon fill="#63b8ff" stroke="#63b8ff" points="298.14,-22.97 306.79,-16.85 296.21,-16.24 298.14,-22.97"/>
</g>
</g>
</svg>
